<mxfile host="www.draw.io" modified="2020-04-28T10:27:45.265Z" agent="5.0 (Macintosh; Intel Mac OS X 10_15_4) AppleWebKit/537.36 (KHTML, like Gecko) Chrome/81.0.4044.122 Safari/537.36" etag="wqDyw6gI0E4Az5XPZBAt" version="13.0.1" type="github">
  <diagram id="FXO2IVZAuRd4TyOzNnDB" name="ページ1">
    <mxGraphModel dx="5327" dy="423" grid="1" gridSize="10" guides="1" tooltips="1" connect="1" arrows="1" fold="1" page="1" pageScale="1" pageWidth="4681" pageHeight="3300" math="0" shadow="0">
      <root>
        <mxCell id="0" />
        <mxCell id="1" parent="0" />
        <mxCell id="_7ZFbRQEtbWVD0L-DC0Z-21" style="edgeStyle=orthogonalEdgeStyle;rounded=0;orthogonalLoop=1;jettySize=auto;html=1;endArrow=none;endFill=0;" edge="1" parent="1">
          <mxGeometry relative="1" as="geometry">
            <mxPoint x="440" y="339.75862068965523" as="targetPoint" />
            <mxPoint x="300" y="340" as="sourcePoint" />
            <Array as="points">
              <mxPoint x="400" y="340" />
              <mxPoint x="400" y="340" />
            </Array>
          </mxGeometry>
        </mxCell>
        <mxCell id="_7ZFbRQEtbWVD0L-DC0Z-17" style="edgeStyle=orthogonalEdgeStyle;rounded=0;orthogonalLoop=1;jettySize=auto;html=1;exitX=1;exitY=0.25;exitDx=0;exitDy=0;exitPerimeter=0;endArrow=none;endFill=0;" edge="1" parent="1" source="_7ZFbRQEtbWVD0L-DC0Z-3">
          <mxGeometry relative="1" as="geometry">
            <mxPoint x="440" y="219.75862068965523" as="targetPoint" />
            <Array as="points">
              <mxPoint x="420" y="220" />
              <mxPoint x="420" y="220" />
            </Array>
          </mxGeometry>
        </mxCell>
        <mxCell id="_7ZFbRQEtbWVD0L-DC0Z-18" style="edgeStyle=orthogonalEdgeStyle;rounded=0;orthogonalLoop=1;jettySize=auto;html=1;exitX=1;exitY=0.75;exitDx=0;exitDy=0;exitPerimeter=0;endArrow=none;endFill=0;" edge="1" parent="1" source="_7ZFbRQEtbWVD0L-DC0Z-3">
          <mxGeometry relative="1" as="geometry">
            <mxPoint x="440" y="259.75862068965523" as="targetPoint" />
          </mxGeometry>
        </mxCell>
        <mxCell id="_7ZFbRQEtbWVD0L-DC0Z-3" value="" style="verticalLabelPosition=bottom;shadow=0;dashed=0;align=center;html=1;verticalAlign=top;shape=mxgraph.electrical.logic_gates.d_type_flip-flop;" vertex="1" parent="1">
          <mxGeometry x="300" y="200" width="100" height="80" as="geometry" />
        </mxCell>
        <mxCell id="_7ZFbRQEtbWVD0L-DC0Z-15" style="edgeStyle=orthogonalEdgeStyle;rounded=0;orthogonalLoop=1;jettySize=auto;html=1;exitX=0;exitY=0.75;exitDx=0;exitDy=0;exitPerimeter=0;endArrow=none;endFill=0;" edge="1" parent="1" source="_7ZFbRQEtbWVD0L-DC0Z-4">
          <mxGeometry relative="1" as="geometry">
            <mxPoint x="300" y="420" as="targetPoint" />
            <Array as="points">
              <mxPoint x="300" y="250" />
              <mxPoint x="300" y="250" />
            </Array>
          </mxGeometry>
        </mxCell>
        <mxCell id="_7ZFbRQEtbWVD0L-DC0Z-19" style="edgeStyle=orthogonalEdgeStyle;rounded=0;orthogonalLoop=1;jettySize=auto;html=1;exitX=1;exitY=0.25;exitDx=0;exitDy=0;exitPerimeter=0;endArrow=none;endFill=0;" edge="1" parent="1" source="_7ZFbRQEtbWVD0L-DC0Z-4">
          <mxGeometry relative="1" as="geometry">
            <mxPoint x="440" y="99.75862068965523" as="targetPoint" />
          </mxGeometry>
        </mxCell>
        <mxCell id="_7ZFbRQEtbWVD0L-DC0Z-20" style="edgeStyle=orthogonalEdgeStyle;rounded=0;orthogonalLoop=1;jettySize=auto;html=1;exitX=1;exitY=0.75;exitDx=0;exitDy=0;exitPerimeter=0;endArrow=none;endFill=0;" edge="1" parent="1" source="_7ZFbRQEtbWVD0L-DC0Z-4">
          <mxGeometry relative="1" as="geometry">
            <mxPoint x="440" y="139.75862068965523" as="targetPoint" />
          </mxGeometry>
        </mxCell>
        <mxCell id="_7ZFbRQEtbWVD0L-DC0Z-4" value="" style="verticalLabelPosition=bottom;shadow=0;dashed=0;align=center;html=1;verticalAlign=top;shape=mxgraph.electrical.logic_gates.d_type_flip-flop;" vertex="1" parent="1">
          <mxGeometry x="300" y="80" width="100" height="80" as="geometry" />
        </mxCell>
        <mxCell id="_7ZFbRQEtbWVD0L-DC0Z-13" value="" style="edgeStyle=orthogonalEdgeStyle;rounded=0;orthogonalLoop=1;jettySize=auto;html=1;endArrow=none;endFill=0;exitX=1;exitY=0.5;exitDx=0;exitDy=0;exitPerimeter=0;" edge="1" parent="1" source="_7ZFbRQEtbWVD0L-DC0Z-5">
          <mxGeometry relative="1" as="geometry">
            <mxPoint x="280" y="219.5" as="sourcePoint" />
            <mxPoint x="300" y="220" as="targetPoint" />
            <Array as="points">
              <mxPoint x="290" y="249" />
              <mxPoint x="290" y="220" />
            </Array>
          </mxGeometry>
        </mxCell>
        <mxCell id="_7ZFbRQEtbWVD0L-DC0Z-5" value="&lt;br&gt;&lt;br&gt;&lt;br&gt;&lt;br&gt;&lt;br&gt;&lt;br&gt;&lt;br&gt;" style="shape=xor;whiteSpace=wrap;html=1;" vertex="1" parent="1">
          <mxGeometry x="239" y="205.5" width="41" height="88" as="geometry" />
        </mxCell>
        <mxCell id="_7ZFbRQEtbWVD0L-DC0Z-16" value="CLK&lt;br&gt;" style="text;html=1;align=center;verticalAlign=middle;resizable=0;points=[];autosize=1;" vertex="1" parent="1">
          <mxGeometry x="280" y="418" width="40" height="20" as="geometry" />
        </mxCell>
        <mxCell id="_7ZFbRQEtbWVD0L-DC0Z-23" value="&lt;font style=&quot;font-size: 14px&quot;&gt;Q&lt;/font&gt;0" style="text;html=1;align=center;verticalAlign=middle;resizable=0;points=[];autosize=1;" vertex="1" parent="1">
          <mxGeometry x="440" y="89" width="30" height="20" as="geometry" />
        </mxCell>
        <mxCell id="_7ZFbRQEtbWVD0L-DC0Z-24" value="&lt;font style=&quot;font-size: 14px&quot;&gt;Q&lt;/font&gt;&lt;font style=&quot;font-size: 9px&quot;&gt;1&lt;/font&gt;" style="text;html=1;align=center;verticalAlign=middle;resizable=0;points=[];autosize=1;" vertex="1" parent="1">
          <mxGeometry x="440" y="209.5" width="30" height="20" as="geometry" />
        </mxCell>
        <mxCell id="_7ZFbRQEtbWVD0L-DC0Z-25" value="Out" style="text;html=1;align=center;verticalAlign=middle;resizable=0;points=[];autosize=1;" vertex="1" parent="1">
          <mxGeometry x="442" y="329" width="30" height="20" as="geometry" />
        </mxCell>
        <mxCell id="_7ZFbRQEtbWVD0L-DC0Z-27" style="edgeStyle=orthogonalEdgeStyle;rounded=0;orthogonalLoop=1;jettySize=auto;html=1;endArrow=none;endFill=0;" edge="1" parent="1">
          <mxGeometry relative="1" as="geometry">
            <mxPoint x="300.0000000000001" y="338.9999999999999" as="targetPoint" />
            <mxPoint x="280.0000000000001" y="339.0000000000001" as="sourcePoint" />
          </mxGeometry>
        </mxCell>
        <mxCell id="_7ZFbRQEtbWVD0L-DC0Z-31" style="edgeStyle=orthogonalEdgeStyle;rounded=0;orthogonalLoop=1;jettySize=auto;html=1;exitX=0;exitY=0.25;exitDx=0;exitDy=0;exitPerimeter=0;endArrow=none;endFill=0;" edge="1" parent="1">
          <mxGeometry relative="1" as="geometry">
            <mxPoint x="70" y="321" as="targetPoint" />
            <mxPoint x="260" y="320.5" as="sourcePoint" />
            <Array as="points">
              <mxPoint x="165" y="321" />
              <mxPoint x="70" y="321" />
            </Array>
          </mxGeometry>
        </mxCell>
        <mxCell id="_7ZFbRQEtbWVD0L-DC0Z-28" value="" style="shape=or;whiteSpace=wrap;html=1;" vertex="1" parent="1">
          <mxGeometry x="260" y="310" width="20" height="50" as="geometry" />
        </mxCell>
        <mxCell id="_7ZFbRQEtbWVD0L-DC0Z-34" style="edgeStyle=orthogonalEdgeStyle;rounded=0;orthogonalLoop=1;jettySize=auto;html=1;exitX=1;exitY=0.5;exitDx=0;exitDy=0;exitPerimeter=0;entryX=0.01;entryY=0.885;entryDx=0;entryDy=0;entryPerimeter=0;endArrow=none;endFill=0;" edge="1" parent="1" source="_7ZFbRQEtbWVD0L-DC0Z-29" target="_7ZFbRQEtbWVD0L-DC0Z-28">
          <mxGeometry relative="1" as="geometry" />
        </mxCell>
        <mxCell id="_7ZFbRQEtbWVD0L-DC0Z-29" value="" style="shape=or;whiteSpace=wrap;html=1;" vertex="1" parent="1">
          <mxGeometry x="219" y="330" width="20" height="50" as="geometry" />
        </mxCell>
        <mxCell id="_7ZFbRQEtbWVD0L-DC0Z-35" value="" style="endArrow=none;html=1;strokeColor=#000000;rounded=0;" edge="1" parent="1">
          <mxGeometry width="50" height="50" relative="1" as="geometry">
            <mxPoint x="400" y="219" as="sourcePoint" />
            <mxPoint x="70" y="320" as="targetPoint" />
            <Array as="points">
              <mxPoint x="400" y="190" />
              <mxPoint x="260" y="190" />
              <mxPoint x="70" y="190" />
            </Array>
          </mxGeometry>
        </mxCell>
        <mxCell id="_7ZFbRQEtbWVD0L-DC0Z-36" value="" style="endArrow=none;html=1;strokeColor=#000000;rounded=0;exitX=0;exitY=0.25;exitDx=0;exitDy=0;exitPerimeter=0;" edge="1" parent="1" source="_7ZFbRQEtbWVD0L-DC0Z-29">
          <mxGeometry width="50" height="50" relative="1" as="geometry">
            <mxPoint x="100" y="350" as="sourcePoint" />
            <mxPoint x="400" y="140" as="targetPoint" />
            <Array as="points">
              <mxPoint x="60" y="343" />
              <mxPoint x="60" y="170" />
              <mxPoint x="400" y="170" />
            </Array>
          </mxGeometry>
        </mxCell>
        <mxCell id="_7ZFbRQEtbWVD0L-DC0Z-37" value="" style="endArrow=none;html=1;strokeColor=#000000;" edge="1" parent="1">
          <mxGeometry width="50" height="50" relative="1" as="geometry">
            <mxPoint x="-20" y="240" as="sourcePoint" />
            <mxPoint x="20" y="240" as="targetPoint" />
          </mxGeometry>
        </mxCell>
        <mxCell id="_7ZFbRQEtbWVD0L-DC0Z-38" value="&lt;font style=&quot;font-size: 14px&quot;&gt;In&lt;/font&gt;" style="text;html=1;align=center;verticalAlign=middle;resizable=0;points=[];autosize=1;" vertex="1" parent="1">
          <mxGeometry x="-48" y="227.5" width="30" height="20" as="geometry" />
        </mxCell>
        <mxCell id="_7ZFbRQEtbWVD0L-DC0Z-55" value="" style="edgeStyle=orthogonalEdgeStyle;rounded=0;orthogonalLoop=1;jettySize=auto;html=1;endArrow=none;endFill=0;strokeColor=#000000;entryX=0;entryY=0.25;entryDx=0;entryDy=0;entryPerimeter=0;" edge="1" parent="1" source="_7ZFbRQEtbWVD0L-DC0Z-39" target="_7ZFbRQEtbWVD0L-DC0Z-44">
          <mxGeometry relative="1" as="geometry" />
        </mxCell>
        <mxCell id="_7ZFbRQEtbWVD0L-DC0Z-39" value="" style="shape=or;whiteSpace=wrap;html=1;" vertex="1" parent="1">
          <mxGeometry x="160" y="194" width="19" height="38" as="geometry" />
        </mxCell>
        <mxCell id="_7ZFbRQEtbWVD0L-DC0Z-49" style="edgeStyle=orthogonalEdgeStyle;rounded=0;orthogonalLoop=1;jettySize=auto;html=1;exitX=1;exitY=0.5;exitDx=0;exitDy=0;exitPerimeter=0;entryX=0.257;entryY=0.664;entryDx=0;entryDy=0;entryPerimeter=0;endArrow=none;endFill=0;strokeColor=#000000;" edge="1" parent="1" source="_7ZFbRQEtbWVD0L-DC0Z-42" target="_7ZFbRQEtbWVD0L-DC0Z-5">
          <mxGeometry relative="1" as="geometry" />
        </mxCell>
        <mxCell id="_7ZFbRQEtbWVD0L-DC0Z-42" value="" style="shape=or;whiteSpace=wrap;html=1;" vertex="1" parent="1">
          <mxGeometry x="200" y="247.5" width="20" height="32.5" as="geometry" />
        </mxCell>
        <mxCell id="_7ZFbRQEtbWVD0L-DC0Z-48" style="edgeStyle=orthogonalEdgeStyle;rounded=0;orthogonalLoop=1;jettySize=auto;html=1;exitX=1;exitY=0.5;exitDx=0;exitDy=0;exitPerimeter=0;entryX=0.207;entryY=0.201;entryDx=0;entryDy=0;entryPerimeter=0;endArrow=none;endFill=0;strokeColor=#000000;" edge="1" parent="1" source="_7ZFbRQEtbWVD0L-DC0Z-44" target="_7ZFbRQEtbWVD0L-DC0Z-5">
          <mxGeometry relative="1" as="geometry" />
        </mxCell>
        <mxCell id="_7ZFbRQEtbWVD0L-DC0Z-44" value="" style="shape=or;whiteSpace=wrap;html=1;" vertex="1" parent="1">
          <mxGeometry x="200" y="205.5" width="20" height="34.5" as="geometry" />
        </mxCell>
        <mxCell id="_7ZFbRQEtbWVD0L-DC0Z-50" value="" style="endArrow=none;html=1;strokeColor=#000000;" edge="1" parent="1">
          <mxGeometry width="50" height="50" relative="1" as="geometry">
            <mxPoint x="70" y="270" as="sourcePoint" />
            <mxPoint x="200" y="270" as="targetPoint" />
          </mxGeometry>
        </mxCell>
        <mxCell id="_7ZFbRQEtbWVD0L-DC0Z-51" value="" style="endArrow=none;html=1;strokeColor=#000000;" edge="1" parent="1">
          <mxGeometry width="50" height="50" relative="1" as="geometry">
            <mxPoint x="60" y="257" as="sourcePoint" />
            <mxPoint x="200" y="257" as="targetPoint" />
          </mxGeometry>
        </mxCell>
        <mxCell id="_7ZFbRQEtbWVD0L-DC0Z-52" value="" style="endArrow=none;html=1;strokeColor=#000000;rounded=0;entryX=1;entryY=0.75;entryDx=0;entryDy=0;entryPerimeter=0;exitX=0;exitY=0.75;exitDx=0;exitDy=0;exitPerimeter=0;" edge="1" parent="1" source="_7ZFbRQEtbWVD0L-DC0Z-56" target="_7ZFbRQEtbWVD0L-DC0Z-3">
          <mxGeometry width="50" height="50" relative="1" as="geometry">
            <mxPoint x="80" y="130" as="sourcePoint" />
            <mxPoint x="390" y="259.5" as="targetPoint" />
            <Array as="points">
              <mxPoint x="80" y="109" />
              <mxPoint x="80" y="299.5" />
              <mxPoint x="400" y="300" />
              <mxPoint x="400" y="280" />
            </Array>
          </mxGeometry>
        </mxCell>
        <mxCell id="_7ZFbRQEtbWVD0L-DC0Z-53" value="" style="endArrow=none;html=1;strokeColor=#000000;entryX=0;entryY=1;entryDx=0;entryDy=0;entryPerimeter=0;" edge="1" parent="1">
          <mxGeometry width="50" height="50" relative="1" as="geometry">
            <mxPoint x="80" y="235" as="sourcePoint" />
            <mxPoint x="200" y="235" as="targetPoint" />
          </mxGeometry>
        </mxCell>
        <mxCell id="_7ZFbRQEtbWVD0L-DC0Z-63" value="" style="edgeStyle=orthogonalEdgeStyle;rounded=0;orthogonalLoop=1;jettySize=auto;html=1;endArrow=none;endFill=0;strokeColor=#000000;entryX=0.175;entryY=0.25;entryDx=0;entryDy=0;entryPerimeter=0;" edge="1" parent="1" source="_7ZFbRQEtbWVD0L-DC0Z-56" target="_7ZFbRQEtbWVD0L-DC0Z-60">
          <mxGeometry relative="1" as="geometry" />
        </mxCell>
        <mxCell id="_7ZFbRQEtbWVD0L-DC0Z-56" value="" style="shape=or;whiteSpace=wrap;html=1;" vertex="1" parent="1">
          <mxGeometry x="160" y="80" width="19" height="38" as="geometry" />
        </mxCell>
        <mxCell id="_7ZFbRQEtbWVD0L-DC0Z-62" value="" style="edgeStyle=orthogonalEdgeStyle;rounded=0;orthogonalLoop=1;jettySize=auto;html=1;endArrow=none;endFill=0;strokeColor=#000000;entryX=0.175;entryY=0.75;entryDx=0;entryDy=0;entryPerimeter=0;" edge="1" parent="1" source="_7ZFbRQEtbWVD0L-DC0Z-57" target="_7ZFbRQEtbWVD0L-DC0Z-60">
          <mxGeometry relative="1" as="geometry" />
        </mxCell>
        <mxCell id="_7ZFbRQEtbWVD0L-DC0Z-57" value="" style="shape=or;whiteSpace=wrap;html=1;" vertex="1" parent="1">
          <mxGeometry x="160" y="122" width="19" height="38" as="geometry" />
        </mxCell>
        <mxCell id="_7ZFbRQEtbWVD0L-DC0Z-58" value="" style="endArrow=none;html=1;strokeColor=#000000;rounded=0;" edge="1" parent="1">
          <mxGeometry width="50" height="50" relative="1" as="geometry">
            <mxPoint x="60" y="170" as="sourcePoint" />
            <mxPoint x="160" y="150" as="targetPoint" />
            <Array as="points">
              <mxPoint x="60" y="150" />
            </Array>
          </mxGeometry>
        </mxCell>
        <mxCell id="_7ZFbRQEtbWVD0L-DC0Z-59" value="" style="endArrow=none;html=1;strokeColor=#000000;rounded=0;" edge="1" parent="1">
          <mxGeometry width="50" height="50" relative="1" as="geometry">
            <mxPoint x="20" y="133" as="sourcePoint" />
            <mxPoint x="160" y="133" as="targetPoint" />
            <Array as="points">
              <mxPoint x="20" y="133" />
            </Array>
          </mxGeometry>
        </mxCell>
        <mxCell id="_7ZFbRQEtbWVD0L-DC0Z-61" style="edgeStyle=orthogonalEdgeStyle;rounded=0;orthogonalLoop=1;jettySize=auto;html=1;entryX=0;entryY=0.25;entryDx=0;entryDy=0;entryPerimeter=0;endArrow=none;endFill=0;strokeColor=#000000;" edge="1" parent="1" source="_7ZFbRQEtbWVD0L-DC0Z-60" target="_7ZFbRQEtbWVD0L-DC0Z-4">
          <mxGeometry relative="1" as="geometry" />
        </mxCell>
        <mxCell id="_7ZFbRQEtbWVD0L-DC0Z-60" value="&lt;br&gt;&lt;br&gt;&lt;br&gt;&lt;br&gt;&lt;br&gt;&lt;br&gt;&lt;br&gt;" style="shape=xor;whiteSpace=wrap;html=1;" vertex="1" parent="1">
          <mxGeometry x="239.5" y="80" width="40" height="80" as="geometry" />
        </mxCell>
        <mxCell id="_7ZFbRQEtbWVD0L-DC0Z-64" value="" style="endArrow=none;html=1;strokeColor=#000000;rounded=0;entryX=0;entryY=0.25;entryDx=0;entryDy=0;entryPerimeter=0;" edge="1" parent="1" target="_7ZFbRQEtbWVD0L-DC0Z-39">
          <mxGeometry width="50" height="50" relative="1" as="geometry">
            <mxPoint x="400" y="100" as="sourcePoint" />
            <mxPoint x="50" y="210" as="targetPoint" />
            <Array as="points">
              <mxPoint x="400" y="40" />
              <mxPoint x="260" y="40" />
              <mxPoint x="50" y="40" />
              <mxPoint x="50" y="204" />
            </Array>
          </mxGeometry>
        </mxCell>
        <mxCell id="_7ZFbRQEtbWVD0L-DC0Z-65" value="" style="endArrow=none;html=1;strokeColor=#000000;entryX=0;entryY=0.75;entryDx=0;entryDy=0;entryPerimeter=0;" edge="1" parent="1" target="_7ZFbRQEtbWVD0L-DC0Z-66">
          <mxGeometry width="50" height="50" relative="1" as="geometry">
            <mxPoint x="50" y="89" as="sourcePoint" />
            <mxPoint x="90" y="89.34" as="targetPoint" />
          </mxGeometry>
        </mxCell>
        <mxCell id="_7ZFbRQEtbWVD0L-DC0Z-66" value="" style="shape=or;whiteSpace=wrap;html=1;" vertex="1" parent="1">
          <mxGeometry x="120" y="60" width="19" height="38" as="geometry" />
        </mxCell>
        <mxCell id="_7ZFbRQEtbWVD0L-DC0Z-69" value="" style="endArrow=none;html=1;strokeColor=#000000;entryX=0;entryY=0.25;entryDx=0;entryDy=0;entryPerimeter=0;rounded=0;" edge="1" parent="1" target="_7ZFbRQEtbWVD0L-DC0Z-56">
          <mxGeometry width="50" height="50" relative="1" as="geometry">
            <mxPoint x="139" y="80" as="sourcePoint" />
            <mxPoint x="200" y="20" as="targetPoint" />
            <Array as="points">
              <mxPoint x="150" y="80" />
              <mxPoint x="150" y="90" />
            </Array>
          </mxGeometry>
        </mxCell>
        <mxCell id="_7ZFbRQEtbWVD0L-DC0Z-73" value="" style="edgeStyle=orthogonalEdgeStyle;rounded=0;orthogonalLoop=1;jettySize=auto;html=1;endArrow=none;endFill=0;strokeColor=#000000;" edge="1" parent="1" source="_7ZFbRQEtbWVD0L-DC0Z-71">
          <mxGeometry relative="1" as="geometry">
            <mxPoint x="120" y="69" as="targetPoint" />
          </mxGeometry>
        </mxCell>
        <mxCell id="_7ZFbRQEtbWVD0L-DC0Z-74" style="edgeStyle=orthogonalEdgeStyle;rounded=0;orthogonalLoop=1;jettySize=auto;html=1;endArrow=none;endFill=0;strokeColor=#000000;" edge="1" parent="1" source="_7ZFbRQEtbWVD0L-DC0Z-71">
          <mxGeometry relative="1" as="geometry">
            <mxPoint x="20" y="69" as="targetPoint" />
          </mxGeometry>
        </mxCell>
        <mxCell id="_7ZFbRQEtbWVD0L-DC0Z-71" value="" style="verticalLabelPosition=bottom;shadow=0;dashed=0;align=center;html=1;verticalAlign=top;shape=mxgraph.electrical.logic_gates.buffer2;" vertex="1" parent="1">
          <mxGeometry x="70" y="54" width="30" height="30" as="geometry" />
        </mxCell>
        <mxCell id="_7ZFbRQEtbWVD0L-DC0Z-75" value="" style="endArrow=none;html=1;strokeColor=#000000;" edge="1" parent="1">
          <mxGeometry width="50" height="50" relative="1" as="geometry">
            <mxPoint x="20" y="220" as="sourcePoint" />
            <mxPoint x="160" y="219.5" as="targetPoint" />
          </mxGeometry>
        </mxCell>
        <mxCell id="_7ZFbRQEtbWVD0L-DC0Z-76" value="" style="endArrow=none;html=1;strokeColor=#000000;" edge="1" parent="1">
          <mxGeometry width="50" height="50" relative="1" as="geometry">
            <mxPoint x="20" y="370" as="sourcePoint" />
            <mxPoint x="219" y="368" as="targetPoint" />
          </mxGeometry>
        </mxCell>
        <mxCell id="_7ZFbRQEtbWVD0L-DC0Z-77" value="" style="endArrow=none;html=1;strokeColor=#000000;" edge="1" parent="1">
          <mxGeometry width="50" height="50" relative="1" as="geometry">
            <mxPoint x="20" y="370" as="sourcePoint" />
            <mxPoint x="20" y="68" as="targetPoint" />
          </mxGeometry>
        </mxCell>
        <mxCell id="_7ZFbRQEtbWVD0L-DC0Z-78" value="&lt;font style=&quot;font-size: 14px&quot;&gt;Q&lt;/font&gt;0" style="text;html=1;align=center;verticalAlign=middle;resizable=0;points=[];autosize=1;" vertex="1" parent="1">
          <mxGeometry x="440" y="131" width="30" height="20" as="geometry" />
        </mxCell>
        <mxCell id="_7ZFbRQEtbWVD0L-DC0Z-79" value="&lt;font style=&quot;font-size: 14px&quot;&gt;Q&lt;/font&gt;&lt;font style=&quot;font-size: 9px&quot;&gt;1&lt;/font&gt;" style="text;html=1;align=center;verticalAlign=middle;resizable=0;points=[];autosize=1;" vertex="1" parent="1">
          <mxGeometry x="442" y="247.5" width="30" height="20" as="geometry" />
        </mxCell>
      </root>
    </mxGraphModel>
  </diagram>
</mxfile>
